<mxfile host="app.diagrams.net" modified="2023-04-18T12:57:43.258Z" agent="Mozilla/5.0 (Windows NT 10.0; Win64; x64; rv:109.0) Gecko/20100101 Firefox/111.0" version="21.1.8" etag="vcFbqnhIs-y2Dl32DRtl" type="github">
  <diagram name="PÃ¡gina-1" id="Oay3tAvh17hiwOw5oQ67">
    <mxGraphModel>
      <root>
        <mxCell id="0" />
        <mxCell id="1" parent="0" />
      </root>
    </mxGraphModel>
  </diagram>
</mxfile>
